<svg xmlns="http://www.w3.org/2000/svg" viewBox="0 0 697.75 205.89"><defs><style>.cls-1{fill:#6fbe44;}.cls-2{fill:#99cc67;}.cls-3{fill:#7ebe42;}.cls-4{fill:#231f20;}</style></defs><title>HTKBBF_Logo_Colour_Emblem_RGB</title><g id="Layer_2" data-name="Layer 2"><g id="Colour"><path class="cls-1" d="M247,82.71a6.42,6.42,0,0,0-3.83,1.2c-18.8-.94-19.87-5.19-21.1-10.1a19.82,19.82,0,0,0-2.36-6.18c-3.46-5.43-15.59-5.44-44.83,0h0c-11.87-5.15-23.9-2.42-23.9-2.42a95,95,0,0,0,7.6-8.8h35.29l14-33c4.39.34,13.81.08,21.42-6.84a6.8,6.8,0,0,0,2.34.41c3,0,5.5-1.9,5.5-4.24s-2.46-4.23-5.5-4.23a21.29,21.29,0,0,0-3.53.56c-7.86,10.69-21,8.32-21.51,8.21l-2.37-.47L189.9,50.43H162.65c3.7-6,7.39-9.77,3.9-18.38-2.55-6.3-22.35-9.16-22.35-9.16A34.58,34.58,0,0,0,142,20.13c4.17,0,9-.78,11.6-2.05A11,11,0,0,0,156.69,16a13.25,13.25,0,0,0,1.43-2.09c1.1-2,2.06-3.87,2.66-4.82,2-3.2,13.24-4.46,22.83-4.94a1.12,1.12,0,0,0,.27-2.19A18.37,18.37,0,0,0,178.5.44a37.73,37.73,0,0,0-7.18-.13c-10.62.77-11.56,1.7-13.44,3.46a70.1,70.1,0,0,0-4.31,6.8,7.35,7.35,0,0,1-.83,1,9.58,9.58,0,0,1-3.3,2.06c-5,2-10.64.66-14.67.25-2.61-1.7-3.8-3.13-8.55-3.17-5.15.2-5.94,1.47-8.54,3.17-4,.41-9.66,1.77-14.68-.25a9.78,9.78,0,0,1-3.3-2.06,6.71,6.71,0,0,1-.82-1,74.44,74.44,0,0,0-4.31-6.8C92.69,2,91.75,1.08,81.12.31A37.63,37.63,0,0,0,74,.44a18.37,18.37,0,0,0-5.39,1.49,1.12,1.12,0,0,0,.27,2.19c9.6.48,20.82,1.74,22.83,4.94.6.95,1.56,2.8,2.66,4.82A12.8,12.8,0,0,0,95.76,16a10.77,10.77,0,0,0,3.13,2.11c2.58,1.27,7.43,2,11.61,2.05a32,32,0,0,0-2.25,2.76s-19.81,2.86-22.36,9.16c-3.48,8.61.21,12.4,3.91,18.38H62.55L48.27,16.76l-2.37.47c-.54.11-13.64,2.48-21.5-8.21a21.47,21.47,0,0,0-3.54-.56c-3,0-5.49,1.89-5.49,4.23s2.46,4.24,5.49,4.24a6.86,6.86,0,0,0,2.35-.41c7.61,6.92,17,7.18,21.41,6.84l14,33H93.91a95,95,0,0,0,7.6,8.8s-12-2.73-23.9,2.42h0c-29.24-5.39-41.37-5.38-44.83,0a20.07,20.07,0,0,0-2.36,6.18C29.2,78.72,28.13,83,9.32,83.91a6.42,6.42,0,0,0-3.83-1.2c-3,0-5.49,1.89-5.49,4.23s2.46,4.24,5.49,4.24a6.38,6.38,0,0,0,4-1.34c21.57-1.08,24.78-7,26.68-14.59a14.68,14.68,0,0,1,1.6-4.43s1.77-2.19,15.08-1c5.69.51,11.93,1.49,17.08,2.39C64,77.08,58.81,84.84,56.3,97.09c-33.63,16.75-37.46,23.74-36.36,28.76.19.85.46,2,.81,3.39,3.34,13.47,13.43,54.29-6.6,68.22-.25,0-.5,0-.75,0-3,0-5.5,1.9-5.5,4.24s2.46,4.23,5.5,4.23,5.49-1.89,5.49-4.23a3,3,0,0,0,0-.31C40.5,184.37,30,142,26.51,127.81c-.34-1.37-.61-2.46-.78-3.24,0,0-.17-3.37,14.9-12.37,4.76-2.84,10-5.61,14.57-7.94-1,9.45-.64,21.09,1.68,35.44,5,30.71,56,58.47,69.34,58.47s64.39-27.76,69.35-58.47c2.31-14.35,2.68-26,1.68-35.44,4.6,2.33,9.8,5.1,14.56,7.94,15.08,9,14.9,12.35,14.9,12.37-.17.78-.44,1.87-.78,3.24-3.51,14.19-14,56.56,7.64,73.54a3,3,0,0,0,0,.31c0,2.34,2.46,4.23,5.5,4.23s5.49-1.89,5.49-4.23-2.46-4.24-5.49-4.24c-.26,0-.51,0-.76,0-20-13.93-9.94-54.75-6.6-68.22.35-1.42.63-2.54.82-3.39,1.1-5-2.73-12-36.36-28.76-2.51-12.25-7.68-20-13.65-24.86,5.16-.9,11.4-1.88,17.09-2.39,13.3-1.21,15.06,1,15.07,1a14.42,14.42,0,0,1,1.6,4.43c1.9,7.59,5.12,13.51,26.69,14.59a6.33,6.33,0,0,0,4,1.34c3,0,5.49-1.9,5.49-4.24S250,82.71,247,82.71Z"/><path class="cls-2" d="M247,82.71a6.42,6.42,0,0,0-3.83,1.2c-18.8-.94-19.87-5.19-21.1-10.1a19.82,19.82,0,0,0-2.36-6.18c-3.46-5.43-15.59-5.44-44.83,0h0c-11.87-5.15-23.9-2.42-23.9-2.42a95,95,0,0,0,7.6-8.8h35.29l14-33c4.39.34,13.81.08,21.42-6.84a6.8,6.8,0,0,0,2.34.41c3,0,5.5-1.9,5.5-4.24s-2.46-4.23-5.5-4.23a21.29,21.29,0,0,0-3.53.56c-7.86,10.69-21,8.32-21.51,8.21l-2.37-.47L189.9,50.43H162.65c3.7-6,7.39-9.77,3.9-18.38-2.55-6.3-22.35-9.16-22.35-9.16A34.58,34.58,0,0,0,142,20.13c4.17,0,9-.78,11.6-2.05A11,11,0,0,0,156.69,16a13.25,13.25,0,0,0,1.43-2.09c1.1-2,2.07-3.87,2.66-4.82,2-3.2,13.24-4.46,22.83-4.94a1.12,1.12,0,0,0,.27-2.19A18.37,18.37,0,0,0,178.5.44a37.73,37.73,0,0,0-7.18-.13c-10.62.77-11.56,1.7-13.44,3.46a70.1,70.1,0,0,0-4.31,6.8,7.35,7.35,0,0,1-.83,1,9.58,9.58,0,0,1-3.3,2.06c-5,2-10.64.66-14.67.25-2.61-1.7-3.8-3.13-8.55-3.17V198.17c13.3,0,64.39-27.76,69.35-58.47,2.31-14.35,2.68-26,1.68-35.44,4.6,2.33,9.8,5.1,14.56,7.94,15.08,9,14.9,12.35,14.9,12.37-.17.78-.44,1.87-.78,3.24-3.51,14.19-14,56.56,7.64,73.54a3,3,0,0,0,0,.31c0,2.34,2.46,4.23,5.5,4.23s5.49-1.89,5.49-4.23-2.46-4.24-5.49-4.24c-.26,0-.51,0-.76,0-20-13.93-9.94-54.75-6.6-68.22.35-1.42.63-2.54.82-3.39,1.1-5-2.73-12-36.36-28.76-2.51-12.25-7.68-20-13.65-24.86,5.16-.9,11.4-1.88,17.09-2.39,13.3-1.21,15.06,1,15.07,1a14.42,14.42,0,0,1,1.6,4.43c1.9,7.59,5.12,13.51,26.69,14.59a6.33,6.33,0,0,0,4,1.34c3,0,5.49-1.9,5.49-4.24S250,82.71,247,82.71Z"/><path class="cls-3" d="M117.68,13.85c-4,.41-9.66,1.77-14.68-.25a9.78,9.78,0,0,1-3.3-2.06,6.71,6.71,0,0,1-.82-1,74.44,74.44,0,0,0-4.31-6.8C92.69,2,91.75,1.08,81.12.31A37.63,37.63,0,0,0,74,.44a18.37,18.37,0,0,0-5.39,1.49,1.12,1.12,0,0,0,.27,2.19c9.6.48,20.82,1.74,22.83,4.94.6.95,1.56,2.8,2.66,4.82A12.8,12.8,0,0,0,95.76,16a10.77,10.77,0,0,0,3.13,2.11c2.58,1.27,7.43,2,11.61,2.05a32,32,0,0,0-2.25,2.76s-19.81,2.86-22.36,9.16c-3.48,8.61.21,12.4,3.91,18.38H62.55L48.27,16.76l-2.37.47c-.54.11-13.64,2.48-21.5-8.21a21.47,21.47,0,0,0-3.54-.56c-3,0-5.49,1.89-5.49,4.23s2.46,4.24,5.49,4.24a6.86,6.86,0,0,0,2.35-.41c7.61,6.92,17,7.18,21.41,6.84l14,33H93.91a95,95,0,0,0,7.6,8.8s-12-2.73-23.9,2.42h0c-29.24-5.39-41.37-5.38-44.83,0a20.07,20.07,0,0,0-2.36,6.18C29.2,78.72,28.13,83,9.32,83.91a6.42,6.42,0,0,0-3.83-1.2c-3,0-5.49,1.89-5.49,4.23s2.46,4.24,5.49,4.24a6.38,6.38,0,0,0,4-1.34c21.57-1.08,24.78-7,26.68-14.59a14.68,14.68,0,0,1,1.6-4.43s1.77-2.19,15.08-1c5.69.51,11.93,1.49,17.08,2.39C64,77.08,58.81,84.84,56.3,97.09c-33.63,16.75-37.46,23.74-36.36,28.76.19.85.46,2,.81,3.39,3.34,13.47,13.43,54.29-6.6,68.22-.25,0-.5,0-.75,0-3,0-5.5,1.9-5.5,4.24s2.46,4.23,5.5,4.23,5.49-1.89,5.49-4.23a3,3,0,0,0,0-.31C40.5,184.37,30,142,26.51,127.81c-.34-1.37-.61-2.46-.78-3.24,0,0-.17-3.37,14.9-12.37,4.76-2.84,10-5.61,14.57-7.94-1,9.45-.64,21.09,1.68,35.44,5,30.71,56,58.47,69.34,58.47V10.68C121.07,10.88,120.28,12.15,117.68,13.85Z"/><path class="cls-4" d="M284.83,203.89h-9V139.24h40.36v7.95H284.83v20.08h29.31V175H284.83Z"/><path class="cls-4" d="M325.37,203.89h-10l28-64.65h8.22l27.75,64.65H369.11L362.53,188H331.85Zm9.68-23.83h24.2l-12.06-30.32Z"/><path class="cls-4" d="M419.78,151.2a14.4,14.4,0,0,0-5.2-4.33,15.91,15.91,0,0,0-7.4-1.69,17.47,17.47,0,0,0-4.43.59,12.34,12.34,0,0,0-4.06,1.92,10.52,10.52,0,0,0-3,3.29,9.19,9.19,0,0,0-1.14,4.7,8.62,8.62,0,0,0,1.05,4.43,9.65,9.65,0,0,0,2.83,3,18.3,18.3,0,0,0,4.2,2.1c1.61.58,3.34,1.17,5.16,1.78q3.29,1,6.67,2.28a24,24,0,0,1,6.11,3.38,15.44,15.44,0,0,1,6.21,13.24,19,19,0,0,1-1.87,8.72,17.82,17.82,0,0,1-5,6.12,21.08,21.08,0,0,1-7.16,3.6,29.38,29.38,0,0,1-8.36,1.19,30.5,30.5,0,0,1-11.82-2.37,23.41,23.41,0,0,1-9.45-7l7-5.94a17.19,17.19,0,0,0,6.12,5.48,17,17,0,0,0,8.31,2.1,16.68,16.68,0,0,0,4.56-.64,12.64,12.64,0,0,0,4.16-2,11,11,0,0,0,3-3.42,9.82,9.82,0,0,0,1.19-5,9,9,0,0,0-1.23-4.88,10.79,10.79,0,0,0-3.33-3.33,21.53,21.53,0,0,0-4.89-2.33q-2.79-1-5.89-2a49.92,49.92,0,0,1-6.12-2.23,21.2,21.2,0,0,1-5.38-3.38,15.47,15.47,0,0,1-3.84-5.07,17.15,17.15,0,0,1-1.46-7.49,16.64,16.64,0,0,1,2-8.31,17.92,17.92,0,0,1,5.12-5.75,21.28,21.28,0,0,1,7.12-3.33,31.15,31.15,0,0,1,8-1.05,27.8,27.8,0,0,1,10.59,2,20.9,20.9,0,0,1,7.94,5.39Z"/><path class="cls-4" d="M460.78,203.89h-9v-56.7H431v-7.95h50.5v7.95H460.78Z"/><path class="cls-4" d="M275.79.87h4.77V15.14h17.26V.87h4.82V35h-4.82V19.38H280.56V35h-4.77Z"/><path class="cls-4" d="M345.35,17.89A18.62,18.62,0,0,1,344,25.14a17.37,17.37,0,0,1-3.78,5.69,17,17,0,0,1-5.74,3.71,19.45,19.45,0,0,1-7.23,1.33A19.23,19.23,0,0,1,320,34.54a16.71,16.71,0,0,1-9.47-9.4,19,19,0,0,1-1.35-7.25,19.15,19.15,0,0,1,1.35-7.31,16.37,16.37,0,0,1,3.76-5.64A17.07,17.07,0,0,1,320,1.3,19.42,19.42,0,0,1,327.23,0a19.64,19.64,0,0,1,7.23,1.3,17.1,17.1,0,0,1,5.74,3.64A16.85,16.85,0,0,1,344,10.58,18.78,18.78,0,0,1,345.35,17.89Zm-5.15,0a15.11,15.11,0,0,0-.92-5.28,13.53,13.53,0,0,0-2.6-4.37,12.24,12.24,0,0,0-4.08-3,13.67,13.67,0,0,0-10.7,0,11.93,11.93,0,0,0-4,3,13.66,13.66,0,0,0-2.58,4.37,15.1,15.1,0,0,0-.91,5.28,15.54,15.54,0,0,0,.91,5.35,13.17,13.17,0,0,0,2.6,4.36,12.05,12.05,0,0,0,4.05,2.91,12.82,12.82,0,0,0,5.31,1.07,13.11,13.11,0,0,0,5.35-1.07,11.87,11.87,0,0,0,4.1-2.91,13.17,13.17,0,0,0,2.6-4.36A15.54,15.54,0,0,0,340.2,17.89Z"/><path class="cls-4" d="M360.88,28.06H361L369,.87h5.25l7.95,27.19h.1L389.8.87h5.06L384.84,35h-5L371.58,7.57h-.1L363.19,35h-5L348.2.87h5.16Z"/><path class="cls-4" d="M421.76,35H417V5.06H406.05V.87h26.66V5.06H421.76Z"/><path class="cls-4" d="M470.21,17.89a18.8,18.8,0,0,1-1.37,7.25,17.37,17.37,0,0,1-3.78,5.69,17,17,0,0,1-5.74,3.71,19.45,19.45,0,0,1-7.23,1.33,19.23,19.23,0,0,1-7.21-1.33,16.71,16.71,0,0,1-9.47-9.4,19,19,0,0,1-1.35-7.25,19.15,19.15,0,0,1,1.35-7.31,16.37,16.37,0,0,1,3.76-5.64,17.07,17.07,0,0,1,5.71-3.64A19.42,19.42,0,0,1,452.09,0a19.64,19.64,0,0,1,7.23,1.3,17.1,17.1,0,0,1,5.74,3.64,16.85,16.85,0,0,1,3.78,5.64A19,19,0,0,1,470.21,17.89Zm-5.15,0a15.11,15.11,0,0,0-.92-5.28,13.53,13.53,0,0,0-2.6-4.37,12.24,12.24,0,0,0-4.08-3,13.67,13.67,0,0,0-10.7,0,11.93,11.93,0,0,0-4.05,3,13.66,13.66,0,0,0-2.58,4.37,15.11,15.11,0,0,0-.92,5.28,15.54,15.54,0,0,0,.92,5.35,13.17,13.17,0,0,0,2.6,4.36,12.05,12.05,0,0,0,4,2.91,12.82,12.82,0,0,0,5.31,1.07,13.11,13.11,0,0,0,5.35-1.07,12,12,0,0,0,4.1-2.91,13.17,13.17,0,0,0,2.6-4.36A15.54,15.54,0,0,0,465.06,17.89Z"/><path class="cls-4" d="M493.54,15.91h.1l15.23-15h6.61L498.9,16.49,516.49,35h-6.84l-16-17.65h-.1V35h-4.77V.87h4.77Z"/><path class="cls-4" d="M525.31,35h-4.77V.87h4.77Z"/><path class="cls-4" d="M538.38,30.76h15.23V35h-20V.87h4.77Z"/><path class="cls-4" d="M563,30.76h15.23V35h-20V.87H563Z"/><path class="cls-3" d="M314.05,86.33a15.86,15.86,0,0,1,4,1.61,14.87,14.87,0,0,1,3.56,2.81A12.71,12.71,0,0,1,325,99.64a15.43,15.43,0,0,1-1.94,8A15.61,15.61,0,0,1,318,113a21.84,21.84,0,0,1-7.27,2.89,40.21,40.21,0,0,1-8.39.87H275.79V58.24h24a56.71,56.71,0,0,1,7.56.54,24.62,24.62,0,0,1,7.4,2.15,14.45,14.45,0,0,1,5.62,4.71,13.63,13.63,0,0,1,2.23,8.13,12.37,12.37,0,0,1-2.36,7.77,14.08,14.08,0,0,1-6.23,4.55Zm-19.92-12.8v7.18h5.29a5.68,5.68,0,0,0,3.39-.94,3.39,3.39,0,0,0,1.32-2.94,2.71,2.71,0,0,0-1.4-2.48,7.33,7.33,0,0,0-3.72-.82Zm0,19.83v7.93H300a6.33,6.33,0,0,0,3.76-1,3.49,3.49,0,0,0,1.44-3,2.87,2.87,0,0,0-.61-1.9,4.74,4.74,0,0,0-1.53-1.2,6.87,6.87,0,0,0-1.94-.62,12.38,12.38,0,0,0-1.95-.16Z"/><path class="cls-3" d="M333.05,58.24h40.24V74.6H351.56v5H372V94.93H351.56v5.45h23.13v16.36H333.05Z"/><path class="cls-3" d="M382.87,116.74V58.24h21.81A63.45,63.45,0,0,1,418,59.6a30.78,30.78,0,0,1,11.15,4.71,24.39,24.39,0,0,1,7.73,8.89q2.88,5.53,2.89,14a29.85,29.85,0,0,1-2.77,13.3,25.92,25.92,0,0,1-7.4,9.21A31,31,0,0,1,418.9,115a45.15,45.15,0,0,1-12.56,1.74Zm18.92-41.81V99.8h3.64q6.94,0,10.66-3T419.8,87q0-5.67-3.71-8.85t-9.92-3.17Z"/><path class="cls-3" d="M506.89,86.33a15.78,15.78,0,0,1,4.05,1.61,14.82,14.82,0,0,1,3.55,2.81,12.78,12.78,0,0,1,3.39,8.89,15.53,15.53,0,0,1-1.94,8,15.74,15.74,0,0,1-5.13,5.29,21.84,21.84,0,0,1-7.27,2.89,40.12,40.12,0,0,1-8.38.87H468.64V58.24h24a56.71,56.71,0,0,1,7.56.54,24.56,24.56,0,0,1,7.39,2.15,14.38,14.38,0,0,1,5.62,4.71,13.56,13.56,0,0,1,2.23,8.13,12.37,12.37,0,0,1-2.35,7.77,14.06,14.06,0,0,1-6.24,4.55ZM487,73.53v7.18h5.29a5.67,5.67,0,0,0,3.38-.94A3.4,3.4,0,0,0,497,76.83a2.7,2.7,0,0,0-1.41-2.48,7.33,7.33,0,0,0-3.72-.82Zm0,19.83v7.93h5.86a6.29,6.29,0,0,0,3.76-1,3.47,3.47,0,0,0,1.45-3,2.88,2.88,0,0,0-.62-1.9,4.54,4.54,0,0,0-1.53-1.2,6.67,6.67,0,0,0-1.94-.62,12.36,12.36,0,0,0-1.94-.16Z"/><path class="cls-3" d="M552.17,118.39a34,34,0,0,1-11.94-1.9,23.88,23.88,0,0,1-8.47-5.2,20.79,20.79,0,0,1-5-7.81,28,28,0,0,1-1.65-9.71V58.24h19.66V91.62a9.76,9.76,0,0,0,2,6.57,8.19,8.19,0,0,0,11.48,0,9.76,9.76,0,0,0,2-6.57V58.24h19.58V93.77a26.11,26.11,0,0,1-1.78,9.71,21.65,21.65,0,0,1-5.24,7.81,24.74,24.74,0,0,1-8.64,5.2A34.66,34.66,0,0,1,552.17,118.39Z"/><path class="cls-3" d="M619.67,118.23a37.42,37.42,0,0,1-12.85-2.15,29.91,29.91,0,0,1-10.24-6.16,28.6,28.6,0,0,1-6.82-9.7,33.89,33.89,0,0,1,0-25.45A29.19,29.19,0,0,1,596.54,65a29.93,29.93,0,0,1,10.08-6.24A34.69,34.69,0,0,1,619,56.59a37.9,37.9,0,0,1,13,2.23,26.92,26.92,0,0,1,10,6.11l-11.48,13.8a14,14,0,0,0-4.3-3.43A13.25,13.25,0,0,0,620.17,74a12,12,0,0,0-4.67,1,12.21,12.21,0,0,0-4,2.73A14.11,14.11,0,0,0,608.68,82a13.93,13.93,0,0,0-1.07,5.54,15.1,15.1,0,0,0,3.18,10q3.18,3.84,10.21,3.84a16.35,16.35,0,0,0,2.56-.21,6,6,0,0,0,2.06-.62V96H616.2V80.55h26.86v32a31.41,31.41,0,0,1-4.75,2.27,46,46,0,0,1-5.71,1.77,59,59,0,0,1-6.32,1.2A48.84,48.84,0,0,1,619.67,118.23Z"/><path class="cls-3" d="M672.06,118.39A38.53,38.53,0,0,1,658.47,116a41.76,41.76,0,0,1-6-2.8,30.67,30.67,0,0,1-5-3.57l12-13a19,19,0,0,0,5.5,4,15.44,15.44,0,0,0,7.06,1.74,7.6,7.6,0,0,0,3-.58,2.13,2.13,0,0,0,1.36-2.15,2.24,2.24,0,0,0-.45-1.41,5.17,5.17,0,0,0-1.61-1.2,25.45,25.45,0,0,0-3.18-1.36q-2-.75-5.09-1.74a43.47,43.47,0,0,1-5.7-2.36,20.24,20.24,0,0,1-4.83-3.36,14.74,14.74,0,0,1-3.35-4.75,16.37,16.37,0,0,1-1.24-6.67,18,18,0,0,1,2.24-9.27,19.56,19.56,0,0,1,5.74-6.25,23.71,23.71,0,0,1,7.89-3.52,36.61,36.61,0,0,1,8.67-1.07,33.57,33.57,0,0,1,11.78,2.23,31.52,31.52,0,0,1,10.53,6.44L685.52,77.74A12.83,12.83,0,0,0,680.65,74a13.11,13.11,0,0,0-5.21-1.28,8.29,8.29,0,0,0-3.47.62,2.09,2.09,0,0,0-1.32,2,2.12,2.12,0,0,0,1.37,2A37.29,37.29,0,0,0,676.44,79q3.13,1,6.61,2.31a28.3,28.3,0,0,1,6.4,3.43,18.17,18.17,0,0,1,4.83,5.17,14.1,14.1,0,0,1,1.9,7.6,19.26,19.26,0,0,1-2.1,9.21,19.94,19.94,0,0,1-5.54,6.53,24,24,0,0,1-7.73,3.88A30.58,30.58,0,0,1,672.06,118.39Z"/></g></g></svg>